<?xml version="1.0" standalone="no"?>
<!DOCTYPE svg PUBLIC "-//W3C//DTD SVG 20010904//EN"
 "http://www.w3.org/TR/2001/REC-SVG-20010904/DTD/svg10.dtd">
<svg version="1.0" xmlns="http://www.w3.org/2000/svg"
 width="148.000000pt" height="25.000000pt" viewBox="0 0 148.000000 25.000000"
 preserveAspectRatio="xMidYMid meet">

<g transform="translate(0.000000,25.000000) scale(0.100000,-0.100000)"
fill="#000000" stroke="none">
<path d="M93 243 c-32 -6 -79 -56 -86 -90 -17 -89 57 -163 146 -146 56 11 107
90 91 140 -12 38 -28 63 -48 77 -26 16 -73 25 -103 19z m67 -125 c0 -59 -1
-61 -17 -45 -16 15 -18 15 -35 0 -17 -15 -18 -13 -18 45 l0 62 35 0 35 0 0
-62z"/>
</g>
</svg>
